<?xml version="1.0" encoding="UTF-8"?>
<svg id="uuid-eb962a49-2479-4700-9761-3acccfcfa9a6" data-name="Слой 1" xmlns="http://www.w3.org/2000/svg" width="297mm" height="54.48mm" viewBox="0 0 841.89 154.42">
  <path d="M742.61,63.19l-9.02,39.28c-1.14,6.18,3.58,7.74,6.74,2.55.96-1.57,2.06-6.72,2.34-6.96.42-.36,2.7.1,3.54-.06-.98,11.17-8.21,19.9-20.29,16.99-1.73-.42-4.16-1.74-5.19-3.22-1.7-2.43-.89-4.96-2.43-7.17-4.6,8.16-15.16,14.03-24.13,9.11-10.98-6.01,1.78-26.73,3.16-35.51.45-2.86,1.07-10.61-3.94-8.14-2.4,1.18-3.28,9.03-4.16,9.65s-3.35.43-3.61-.68c-.31-1.3,3.4-9.52,4.51-11.02,4.06-5.48,13.03-7.66,18.55-3.03,8.8,7.39-1.54,25.38-3.6,34.18-2.04,8.7,3.3,11.82,8.72,5.12,7.85-9.69,10.13-25.77,13.53-37.49,1.39-1.89,12.5-2.34,15.28-3.62Z" style="fill: #650132;"/>
  <path d="M258.93,66.3l14.89-3.11c-2.36,13.96-6.52,27.68-8.97,41.69,1.34,5.28,5.41,3.61,7.51-.24,1.95-3.58.46-7.85,5.67-6.63-.87,5.48-2.75,12.33-7.87,15.23-5.39,3.05-15.83,3.76-18.41-3.06l-1.32-7.97c-2.46,7.9-10.4,14-18.92,13.2-8.49-.8-10.76-6.11-9.84-14.04.63-5.44,11.46-27.85,6.58-31.31s-6.56,9.37-7.32,9.86c-.63.4-2.6-.09-3.52.07,1.3-7.42,4.22-15.59,12.57-17.13,10.73-1.98,15.01,5,13.69,14.89-.98,7.31-7.57,19.14-7.54,25.35.02,4.58,3.85,5.93,7.29,3.21,8.84-6.99,12.85-29.39,15.51-40.01Z" style="fill: #650132;"/>
  <path d="M416.68,49.38l-3,14.4c1.54.27,8.03-.73,8.3.88.03.2-1.01,3.74-1.18,3.85-1.22.8-7.48-.87-8.64.66l-7.88,35.03c.38,3.75,1.95,4.86,5.53,3.43,4-1.59,4.46-9.13,5.14-9.56.35-.22,3.8-.67,3.46.75-2.12,8.91-6.14,16.44-16.44,16.62-9.4.16-13.05-5.86-11.66-14.7l7.18-31.26c.12-1.25-.08-.78-.9-.91-.99-.15-6.28.36-6.33-.3.44-7.07,4.08-3.3,8.75-5.06l3.26-13.84h14.41Z" style="fill: #650032;"/>
  <path d="M463.67,83.76c3.59-3.56,9.72,1.85,4.65,5.53,3.86,3.38,8.41-.17,8.44-4.79.05-6.8-7.98-9.51-13.25-6.31,1.76-2.43-2.59-7.29-4.4-7.12-2.62.24-5.62,4.32-4.61,7.12-3.37-2.01-8.37-1.88-11.12,1.18-5.14,5.73-.36,13.86,6.92,10.21-.77-1.28-2.36-1.24-2.35-3.3.02-5.67,9.5-4.67,8.23,4.05-1.82,12.45-21.74,9.73-23.21-2.31-1.98-16.23,19.07-17.54,26.04-28.43,7.48,11.06,29.12,12.48,25.97,29.56-2.09,11.34-23.85,13.87-22.7-1.09.1-1.25.53-3.44,1.4-4.3Z" style="fill: #033299;"/>
  <path d="M370.24,64.64c1.24.85,2.48,3.21,2.81,4.67,1.95,8.4-4.72,23.57-5.52,32.67-.7,7.93,5.44,8.21,8.45,2.45,1.84-3.52.01-7.64,5.28-6.42-1,10.03-7.26,18.48-18.25,17.34-10.45-1.09-10.55-8.36-9.2-16.88.83-5.27,6.21-23.09,4.98-26.89-1.4-4.32-4.77-.97-6.04,1.83-1.39,3.07-.9,7.75-5.11,6.59-.45-11.3,11.86-22.71,22.59-15.36Z" style="fill: #650132;"/>
  <path d="M390.27,28.98c-1.37,11.8-10.79,30.69-24.72,29.87-8.34-.49-9.26-9.28-4.03-14.51,6.8-6.8,20.4-4.04,26.07-11.74,1.06-1.45.93-3.84,2.67-3.62Z" style="fill: #650132;"/>
  <path d="M209.63,98.03c-.2.19-.55,4.33-.91,5.39-1.33,3.97-6.05,7.38-8.43,2.39-3.47-7.27.48-17.73,3.68-24.55,1.34-2.84,9.29-14.71,7.96-16.8-.95-1.48-10.59.98-12.81,1.14-1.59.11-9.07.15-12.98-.18-1.08-.09-1.75-1.18-1.4-2.2.99-2.94.26-7.22-2.71-8.17-7.15-2.27-11.47,4.09-10.1,10.7.65,3.14,4.19,5.19,4.1,7.91-.09,2.83-4.81,14.69-6.23,17.85-8.82,19.64-29.98,40.15-52.34,41.89-8.35.65-22.74-3.18-24.26-12.93-2.18-13.91,13.13-31.42,24.34-38.74.41-.27.91-.33,1.38-.18,9.69,2.98,20.32,4.66,30.31,1.99,8.12-2.17,14.72-8.2,10.67-17.15-4.85-10.73-24.22-7.11-33.24-4.82-1.21.31-5.51,2.24-6.09,2.13-.74-.14-3.74-3.58-3.98-4.42-.38-1.36.74-.75,1.47-.9,9.85-2.13,19.41-3.07,29.11-6.31,10.39-3.47,33.36-14.83,34.85-26.97,1.99-16.19-13.97-19.18-26.25-21.89-.12-.03-.23-.04-.35-.04h-14.23c-26.63-.22-60.14,14.68-57.17,45.39.11,1.14-.94,2.03-2.05,1.77-16.78-3.96-30.3-25.99-8.89-32.95.63-.2,1.09-.75,1.16-1.41l.02-.2c.15.79.53,1.01,1.21,1.2,1.16.32,9.44.49,9.29-1.2-.53-3.44-7.11-5-10.41-5.62-11.92-2.23-30.34,2.15-31.59,16.33,0,.06,0,.13,0,.19v6.4c0,.07,0,.15.01.22,2.2,19.33,27.03,25.6,43.58,26.35.5.02.95.27,1.25.67,2.52,3.39,5.07,6.54,8.5,8.96,1.02.72.91,2.25-.2,2.81-21.41,10.74-47.23,31.82-36.22,58.38,5.58,13.46,20.58,23.41,35.16,22.77.09,0,.18,0,.26.01,6.12.91,12.36.9,18.48-.02,12.81-1.69,25.35-6.18,35.95-13.57,21.33-14.87,27.44-39.53,31.04-64.01.13-.89.95-1.52,1.85-1.4,3.26.46,6.74.66,10.09.33,1.54-.15,2.45,1.69,1.36,2.79-8.17,8.26-15.62,20.76-9.69,31.37,3.69,6.6,11.97,7.82,18.71,5.64,6.98-2.26,9.18-7.95,10.54-14.39.21-.99-.52-1.94-1.53-1.99s-2.08-.13-2.25.04ZM133.56,72.05c3.23-2.25,14.49-6.27,17.67-3.32,2.73,2.54-3.14,4.63-5.22,4.99-4.41.75-8.87.12-13.24-.34-.33-1.44.26-.97.79-1.34ZM112.97,40.08c1.94-12.46,18.1-22.71,30.3-21.9,11.59.77,22.15,9.55,11.5,20.18-6.57,6.56-29.3,13.81-38.5,14.06-.78.02-3.31,0-3.31-.94,0-3.31-.47-8.4,0-11.4ZM180.89,59.72c-.08,2.1-3.24,2.18-3.31.09-.02-.53.07-1.01.27-1.36.26-.44,2.63-.44,2.89,0,.15.25.17.72.15,1.27Z" style="fill: #660032;"/>
  <path d="M590.15,154.42h7.2l6.46-1.04.74-.16c8.94-1.67,22.57-6.16,20.95-17.66-.82-5.83-10.94-13.81-16.75-14.75,13.2,35.09-34.92,16.11-49.82,9.59,14.3-15.52,18.95-37.36,22.81-57.61h-17.41c-.82,13.84-14.2,40.15-31.34,30.44-11.3-6.4-9.68-23.37-7.74-34.3,19.81-.55,40.79-4.43,56.17-17.77,19.34-16.77,13.26-37.65-13.78-35.99-15.79.97-40.85,14.28-51.34,26.09-5.43,6.12-6.9,11.03-10.66,17.55-1.86,3.23-7.48-1.67-9.13-3.73-8.94-11.17,1.53-23.42,13.8-24-9.04-6.03-25.6-1.45-27.94,9.87-2.85,13.73,8.75,22.58,20.73,25.27-3.4,13.64-3.32,33.69,8.73,43.18,10.86,8.54,30.63,8.07,41.7.01.55.68-6.11,14.64-7.58,14.92-13.04-5.81-29.95-8.64-43.43-2.61-13.83,6.2-13.1,21.32,1.03,26.56,16.69,6.2,32.63-3.42,47.19-10.58,8.33,8.22,20.43,12.65,31.6,15.52l.89.21,6.91.99M561.21,25.55c25.13-6.83,21.36,15.95,6.33,26.74-11.48,8.23-27.1,11.09-41.01,10.9,4.94-16.56,17.4-32.94,34.69-37.64ZM520.55,143.95c-3.54.7-16.55,1.62-17.78-2.68-1.75-6.12,7.51-10.55,12.22-11.88,8.96-2.53,17.84-2.37,26.53,1.03-4.51,6.65-13.05,11.96-20.98,13.53Z" style="fill: #650032;"/>
  <path d="M777.72,71.59c-2.01-9.12-11.19-11.43-18.72-6.71-4.46,2.8-7.31,10.05-7.39,15.12.82-.12,2.32.28,2.92-.09,1.03-.63,2.15-12.96,7.29-9.83,1.63.99.71,6.4.43,8.25-1.33,8.64-7.45,37.56-10.99,44.23-5.7,10.73-17.73,16.77-29.8,13.69-4.25-1.08-10.81-5.21-10.04-10.3.16-1.09,3.01-4.55.89-3.93-6,1.74-13.12,10.1-9.22,16.4,4.29,6.93,18.59,8.06,26,7.6,20.71-1.3,36.6-14.79,39.93-35.41,7.33,8.41,20.96,4.03,28.75-1.55,2.71-1.94,4.87-4.13,6.67-6.54,4.4-5.88,6.59-13.12,6.59-20.47v-.71c0-5.5-2.23-10.85-6.41-14.41-7.95-6.76-20.58-6.23-26.9,4.66ZM793.35,88.42c-1.39,6.06-7.53,20.87-14.51,21.55-9.47.92-5.54-15.89-4.14-20.98,1.49-5.39,7.44-19.72,13.36-20.87,9.3-1.81,6.46,15.16,5.28,20.31Z" style="fill: #650032;"/>
  <path d="M338.65,98c-.23.25-.63,4.57-1.68,6.42-2.76,4.85-7.99,5.6-8.55-.69l15.03-65.15c-.63-.54-14.58,2.11-15.06,2.78l-5.95,25.42c-2.45-.86-4.29-3.51-7.03-4.06-22.32-4.52-39.28,25.91-30.29,44.69,5.57,11.64,22.59,8.37,29.52-.41,1.34,9.08,12.5,9.98,19.44,6.53,5.96-2.96,7.1-9.78,8.78-15.53-.81.13-4.01-.21-4.2,0ZM316.02,93.67c-1.46,4.45-9.19,20.08-14.71,12.56-4-5.45-.74-20.68,1.65-26.82,1.61-4.15,7.81-15.75,13.3-10.63,4.1,3.82,1.44,19.74-.24,24.89Z" style="fill: #650032;"/>
  <path d="M656.63,62.74c-35.07,4.77-40.86,59.8-1.03,51.79,33.89-6.81,36.43-56.61,1.03-51.79ZM665.72,85.04c-1.06,6.74-7.5,24.18-15.32,24.94-8.76.85-5.54-15.83-4.14-20.99,1.45-5.38,7.51-19.5,13.35-20.87,8.22-1.92,6.88,12.03,6.12,16.92Z" style="fill: #650032;"/>
  <path d="M619.57,98.01c-.19.2-.37,4.32-.77,5.54-1.83,5.63-7.69,6.88-9.06.38-1.72-8.15,1.08-16.27,4.6-23.45,1.46-2.99,9.1-13.49,7.55-16-.85-1.37-10.68,1-12.81,1.14-2.01.14-14.14.2-14.73-.63,1.78-4.64,1.5-9.9-4.48-10.23-8.36-.47-10.35,9.58-5.72,15.34,1.02,1.27,2.89,1.97,3,2.12.39.54-5.21,10.43-4.2,12.59,1.29-.89,3.49-.17,4.52-1.18,1.36-1.34,2.33-8.63,3.85-9.32,5.59.34,11.49,1.02,16.84-.9-9.33,7.79-20.36,22.36-14.31,35.01,3.79,7.91,16.38,8.81,23.01,4,4.79-3.48,5.89-8.87,6.9-14.4-.82.14-3.98-.22-4.19,0ZM589.86,63.17c-1.75-.37-2.51-2.81-2.15-4.4.2-.92,2.73-.77,2.99-.33.14.23.71,5.05-.83,4.73Z" style="fill: #650132;"/>
</svg>