<svg width="102" height="32" viewBox="0 0 102 32" fill="none" xmlns="http://www.w3.org/2000/svg">
<path d="M8.59438 16.838C7.04771 17.9313 6.27438 19.558 6.27438 21.718C6.27438 23.078 6.75438 24.358 7.71438 25.558C8.70104 26.758 10.3544 27.358 12.6744 27.358C14.9944 27.358 17.1944 26.5713 19.2744 24.998C21.3544 23.4246 22.9277 21.7046 23.9944 19.838L25.3544 22.278C21.9144 28.118 17.1277 31.038 10.9944 31.038C7.95438 31.038 5.38104 30.2246 3.27438 28.598C1.16771 26.9446 0.114375 25.0113 0.114375 22.798C0.114375 18.9313 1.83438 16.1313 5.27438 14.398C4.12771 12.9846 3.55438 11.3313 3.55438 9.43796C3.55438 6.95796 4.62104 4.82462 6.75438 3.03796C8.91438 1.25129 11.4077 0.357957 14.2344 0.357957C17.061 0.357957 19.2344 1.07796 20.7544 2.51796C22.301 3.95796 23.0744 5.85129 23.0744 8.19796H19.2744C19.301 6.75796 18.9144 5.67796 18.1144 4.95796C17.341 4.21129 16.2477 3.83796 14.8344 3.83796C13.4477 3.83796 12.1944 4.34462 11.0744 5.35796C9.82104 6.45129 9.19438 7.73129 9.19438 9.19796C9.19438 10.6646 9.59438 11.9313 10.3944 12.998C13.061 12.678 15.0877 12.8513 16.4744 13.518C17.3277 13.918 17.7544 14.558 17.7544 15.438C17.7544 16.2913 17.261 16.8913 16.2744 17.238C15.3144 17.5846 14.1544 17.758 12.7944 17.758C11.4344 17.758 10.0344 17.4513 8.59438 16.838ZM31.6122 16.798C31.6122 15.6246 31.0655 15.038 29.9722 15.038C28.9055 15.038 28.0522 15.7313 27.4122 17.118C30.2922 19.3846 31.7322 21.9313 31.7322 24.758C31.7322 26.8113 31.1589 28.3713 30.0122 29.438C28.8655 30.5046 27.4255 31.038 25.6922 31.038C23.9589 31.038 22.6922 30.5046 21.8922 29.438C21.0922 28.3446 20.6922 26.9713 20.6922 25.318C20.6922 24.8113 20.7055 24.438 20.7322 24.198L22.1322 11.998C23.0922 11.7046 24.0655 11.558 25.0522 11.558C26.6789 11.558 27.4922 12.158 27.4922 13.358V13.438C28.5589 12.1846 29.9189 11.558 31.5722 11.558C32.7722 11.558 33.7055 11.838 34.3722 12.398C35.0389 12.9313 35.3722 13.6513 35.3722 14.558C35.3722 15.4646 35.0255 16.2113 34.3322 16.798C33.6655 17.358 32.7855 17.638 31.6922 17.638C31.6389 17.638 31.5855 17.638 31.5322 17.638C31.5855 17.3446 31.6122 17.0646 31.6122 16.798ZM29.1322 24.558C29.1322 23.0113 28.3322 21.4646 26.7322 19.918C26.2522 23.758 26.0122 25.6913 26.0122 25.718C26.0122 26.838 26.4655 27.398 27.3722 27.398C28.5455 27.398 29.1322 26.4513 29.1322 24.558ZM54.1366 11.958C53.0432 20.598 52.4966 25.198 52.4966 25.758C52.4966 26.8246 52.8832 27.358 53.6566 27.358C54.3499 27.358 55.0966 26.8913 55.8966 25.958C56.7232 24.998 57.3766 23.5713 57.8566 21.678C58.7366 22.638 59.2699 23.3846 59.4566 23.918C58.8432 26.5046 57.8699 28.3313 56.5366 29.398C55.2032 30.4646 53.8299 30.998 52.4166 30.998C50.0966 30.998 48.5366 30.1046 47.7366 28.318C46.3499 30.1046 44.4966 30.998 42.1766 30.998C40.2566 30.998 38.7766 30.518 37.7366 29.558C36.6966 28.598 36.1766 27.3446 36.1766 25.798C36.1766 25.4246 36.2432 24.7713 36.3766 23.838C36.9899 18.878 37.4566 14.9313 37.7766 11.998C38.6032 11.7046 39.3632 11.558 40.0566 11.558C40.7499 11.558 41.2699 11.5846 41.6166 11.638C41.9632 11.6913 42.2966 11.8913 42.6166 12.238C42.9366 12.5846 43.0966 13.078 43.0966 13.718L41.7766 23.918C41.7232 24.238 41.6966 24.5313 41.6966 24.798C41.6966 26.3713 42.4166 27.158 43.8566 27.158C45.1899 27.158 46.2966 26.5046 47.1766 25.198C47.1766 24.9046 47.2032 24.438 47.2566 23.798L48.5766 13.158C48.7632 12.7046 49.1632 12.3313 49.7766 12.038C50.3899 11.718 51.1499 11.558 52.0566 11.558C52.9899 11.558 53.6832 11.6913 54.1366 11.958ZM71.85 1.95796C72.0367 1.50462 72.45 1.13129 73.09 0.837958C73.7567 0.517957 74.5433 0.357957 75.45 0.357957C76.3833 0.357957 77.0767 0.49129 77.53 0.757957C77.2633 2.83796 76.8367 6.10462 76.25 10.558C75.0233 19.8646 74.41 24.998 74.41 25.958C74.41 26.8913 74.81 27.358 75.61 27.358C76.3033 27.358 77.0233 26.9313 77.77 26.078C78.5167 25.198 79.1967 23.7713 79.81 21.798C80.5567 22.518 81.0767 23.3046 81.37 24.158C80.41 27.3313 78.9033 29.3846 76.85 30.318C75.9167 30.7713 75.0367 30.998 74.21 30.998C71.8367 30.998 70.25 30.1446 69.45 28.438C68.0633 30.1713 66.29 31.038 64.13 31.038C61.97 31.038 60.1433 30.3046 58.65 28.838C57.1833 27.3713 56.45 25.438 56.45 23.038C56.45 19.5446 57.4767 16.758 59.53 14.678C61.5833 12.598 64.1833 11.558 67.33 11.558C67.41 11.558 67.49 11.558 67.57 11.558C68.6633 11.558 69.69 11.718 70.65 12.038L71.85 1.95796ZM67.93 14.678C66.2233 14.678 64.8633 15.3313 63.85 16.638C62.8633 17.918 62.2767 19.838 62.09 22.398C62.0633 22.638 62.05 22.8646 62.05 23.078C62.05 24.3846 62.3567 25.4246 62.97 26.198C63.61 26.9713 64.4233 27.358 65.41 27.358C67.09 27.358 68.3567 26.1713 69.21 23.798L70.25 15.198C69.37 14.8513 68.5967 14.678 67.93 14.678ZM81.5241 1.35796C82.1374 0.717956 82.8841 0.397956 83.7641 0.397956C84.6441 0.397956 85.3907 0.717956 86.0041 1.35796C86.6441 1.97129 86.9641 2.71796 86.9641 3.59796C86.9641 4.47796 86.6441 5.22462 86.0041 5.83796C85.3907 6.45129 84.6441 6.75796 83.7641 6.75796C82.8841 6.75796 82.1374 6.45129 81.5241 5.83796C80.9107 5.22462 80.6041 4.47796 80.6041 3.59796C80.6041 2.71796 80.9107 1.97129 81.5241 1.35796ZM79.8841 13.078C80.1507 12.598 80.6574 12.238 81.4041 11.998C82.1507 11.7313 82.8841 11.598 83.6041 11.598C84.3507 11.598 85.0041 11.6913 85.5641 11.878C84.5241 19.9046 84.0041 23.958 84.0041 24.038C83.8707 24.5713 83.8041 25.0246 83.8041 25.398C83.8041 25.7446 83.8307 26.0513 83.8841 26.318C83.9907 27.0113 84.4707 27.358 85.3241 27.358C86.2041 27.358 87.0041 26.798 87.7241 25.678C88.4707 24.5313 89.0307 23.238 89.4041 21.798C89.5907 21.9046 89.8841 22.2246 90.2841 22.758C90.6841 23.2913 90.9241 23.6913 91.0041 23.958C90.4707 26.0913 89.5641 27.8113 88.2841 29.118C87.0041 30.4246 85.4707 31.078 83.6841 31.078C81.8974 31.078 80.5641 30.638 79.6841 29.758C78.8307 28.878 78.4041 27.7446 78.4041 26.358C78.4041 26.0646 78.4174 25.758 78.4441 25.438L79.8841 13.078ZM96.7819 2.95796C96.7819 3.11796 96.4219 5.98462 95.7019 11.558H101.582V14.638H95.3019L95.1819 15.638C98.3019 18.2513 99.8619 21.1046 99.8619 24.198C99.8619 26.6246 99.2352 28.3713 97.9819 29.438C96.7552 30.5046 95.2752 31.038 93.5419 31.038C91.8085 31.038 90.5419 30.5846 89.7419 29.678C88.9419 28.7446 88.5419 27.6246 88.5419 26.318C88.5419 26.0246 88.5685 25.7046 88.6219 25.358L89.8619 14.718L89.7019 14.638H86.4619C86.4352 14.3713 86.4219 13.9446 86.4219 13.358C86.4219 12.7446 86.5419 12.1446 86.7819 11.558H90.2219L91.5019 0.677958C92.0619 0.464624 92.8085 0.357957 93.7419 0.357957C95.7685 0.357957 96.7819 1.22462 96.7819 2.95796ZM97.1819 24.158C97.1819 22.318 96.3819 20.5046 94.7819 18.718C94.3019 22.6913 94.0619 24.9846 94.0619 25.598C94.0619 26.798 94.4485 27.398 95.2219 27.398C95.7819 27.398 96.2485 27.1446 96.6219 26.638C96.9952 26.1046 97.1819 25.278 97.1819 24.158Z" fill="#66171A"/>
</svg>
